<?xml version="1.0" encoding="UTF-8" standalone="no"?>
<svg
   viewBox="0 0 16 16"
   version="1.1"
   id="svg980"
   sodipodi:docname="ca.footeware.c.texty.line-wrapping-symbolic.svg"
   inkscape:version="1.2.2 (b0a8486541, 2022-12-01)"
   xmlns:inkscape="http://www.inkscape.org/namespaces/inkscape"
   xmlns:sodipodi="http://sodipodi.sourceforge.net/DTD/sodipodi-0.dtd"
   xmlns="http://www.w3.org/2000/svg"
   xmlns:svg="http://www.w3.org/2000/svg">
  <defs
     id="defs984" />
  <sodipodi:namedview
     id="namedview982"
     pagecolor="#ffffff"
     bordercolor="#111111"
     borderopacity="1"
     inkscape:showpageshadow="0"
     inkscape:pageopacity="0"
     inkscape:pagecheckerboard="1"
     inkscape:deskcolor="#d1d1d1"
     showgrid="false"
     inkscape:zoom="64"
     inkscape:cx="6.9375"
     inkscape:cy="7.7421875"
     inkscape:window-width="2304"
     inkscape:window-height="1355"
     inkscape:window-x="0"
     inkscape:window-y="0"
     inkscape:window-maximized="1"
     inkscape:current-layer="g8784" />
  <g
     id="g404"
     transform="matrix(1.0359137,0,0,1.1487148,-0.5424266,-1.5004733)">
    <g
       id="g397">
      <g
         id="g8784"
         transform="matrix(1.1604779,0,0,1.1604779,-1.9584845,-0.75562598)">
        <g
           id="g5383"
           transform="matrix(1.0418408,0,0,1.0418408,-0.37042064,-0.23899587)">
          <g
             id="g3159">
            <g
               id="g8779">
              <path
                 d="m 3,3.2172685 0.00183,1.3544508 10.341761,0.045166 -0.0066,-1.3856398 z M 3,7 V 8.2250517 H 13 V 7 Z m 0,3.784689 v 1.230496 l 3.1598196,-0.0077 -0.013051,-1.233758 z"
                 fill="#808080"
                 overflow="visible"
                 id="path978"
                 sodipodi:nodetypes="ccccccccccccccc" />
            </g>
            <path
               d="M 6.1280249,12.007381 H 7.4895528 V 10.774029 H 6.1280249 Z M 14.195241,3.9586838 c -6.7226784,-1.6806695 -3.361339,-0.8403344 0,0 z m -1.512603,3.0252053 -6.563921,0.00739 0.00931,1.226271 h 6.680664 c 0.55462,0 0.627387,0.676583 0.627387,1.2312038 0,0.5546211 -0.07277,1.1640411 -0.627387,1.1640411 h -1.13445 V 8.9180032 L 8.6411335,11.290463 11.674241,13.44425 v -1.523185 h 1.008399 c 0.558364,0 1.223799,-0.417819 1.597179,-1.032132 0.371745,-0.611622 0.452732,-0.9685623 0.419625,-1.4795866 C 14.662704,8.8422487 14.557598,8.2885692 14.132373,7.7305864 13.789554,7.2807368 13.180004,6.9838891 12.68264,6.9838891 Z"
               id="path6631"
               sodipodi:nodetypes="cccccccsccssscccccssssss"
               style="fill:#808080;fill-opacity:1;stroke-width:0.504201" />
          </g>
        </g>
      </g>
    </g>
  </g>
</svg>
