<?xml version="1.0" encoding="UTF-8" standalone="no"?>
<!-- Uploaded to: SVG Repo, www.svgrepo.com, Generator: SVG Repo Mixer Tools -->

<svg
   version="1.1"
   id="Layer_1"
   width="15.999998"
   height="16"
   viewBox="0 0 2.5599997 2.56"
   enable-background="new 0 0 128 128"
   xml:space="preserve"
   sodipodi:docname="ca.footeware.c.texty-symbolic.svg"
   inkscape:version="1.3 (0e150ed6c4, 2023-07-21)"
   xmlns:inkscape="http://www.inkscape.org/namespaces/inkscape"
   xmlns:sodipodi="http://sodipodi.sourceforge.net/DTD/sodipodi-0.dtd"
   xmlns="http://www.w3.org/2000/svg"
   xmlns:svg="http://www.w3.org/2000/svg"><defs
   id="defs38"><filter
     style="color-interpolation-filters:sRGB"
     inkscape:label="Greyscale"
     id="filter405"
     x="0"
     y="0"
     width="1"
     height="1"><feColorMatrix
       values="0.21 0.72 0.072 0 0 0.21 0.72 0.072 0 0 0.21 0.72 0.072 0 0 0 0 0 1 0 "
       id="feColorMatrix403" /></filter></defs><sodipodi:namedview
   id="namedview36"
   pagecolor="#ffffff"
   bordercolor="#111111"
   borderopacity="1"
   inkscape:showpageshadow="0"
   inkscape:pageopacity="0"
   inkscape:pagecheckerboard="1"
   inkscape:deskcolor="#d1d1d1"
   showgrid="false"
   inkscape:zoom="68.4375"
   inkscape:cx="6.9917808"
   inkscape:cy="8"
   inkscape:window-width="2304"
   inkscape:window-height="1355"
   inkscape:window-x="0"
   inkscape:window-y="0"
   inkscape:window-maximized="1"
   inkscape:current-layer="Layer_1" />&#10;&#10;&#10;&#10;&#10;&#10;<g
   id="g337"
   transform="matrix(0.02285714,0,0,0.02,-0.18285712,0)"
   style="filter:url(#filter405)"><path
     fill="#546e7a"
     d="M 104,0 H 24 C 15.164,0 8,7.164 8,16 v 96 c 0,8.836 7.164,16 16,16 h 80 c 8.836,0 16,-7.164 16,-16 V 16 C 120,7.164 112.836,0 104,0 Z m 8,112 c 0,4.414 -3.586,8 -8,8 H 24 c -4.406,0 -8,-3.586 -8,-8 V 16 c 0,-4.414 3.594,-8 8,-8 h 80 c 4.414,0 8,3.586 8,8 z"
     id="path25" /><rect
     x="32"
     y="24"
     fill="#b0bec5"
     width="64"
     height="8"
     id="rect27" /><rect
     x="32"
     y="40"
     fill="#b0bec5"
     width="64"
     height="8"
     id="rect29" /><rect
     x="32"
     y="56"
     fill="#b0bec5"
     width="64"
     height="8"
     id="rect31" /><rect
     x="32"
     y="72"
     fill="#b0bec5"
     width="32"
     height="8"
     id="rect33" /><path
     style="fill:#ffffff;stroke-width:0.730594"
     d="m 143.56105,749.15921 c -18.50587,-2.41378 -34.70216,-15.96044 -40.60078,-33.95872 l -2.13835,-6.52469 V 400 91.324201 l 2.13835,-6.524688 c 5.26336,-16.059911 18.66742,-28.564661 35.48722,-33.106284 4.48562,-1.211192 18.9838,-1.28227 261.55251,-1.28227 242.56871,0 257.06689,0.07108 261.55251,1.28227 16.88018,4.557926 30.21113,17.008952 35.50524,33.16167 l 2.12033,6.469302 V 400 708.6758 l -2.12033,6.4693 c -5.23592,15.97517 -18.17101,28.18076 -35.13994,33.15814 -4.1445,1.21568 -18.26905,1.29097 -258.99544,1.38062 -140.03653,0.0522 -256.74912,-0.18394 -259.36132,-0.52465 z M 400,474.88584 V 449.68037 H 299.90868 199.81735 v 25.20547 25.20548 H 299.90868 400 Z M 600.18265,374.79452 V 349.58904 H 400 199.81735 V 374.79452 400 H 400 600.18265 Z m 0,-99.72603 V 249.49772 H 400 199.81735 v 25.57077 25.57078 H 400 600.18265 Z m 0,-100.09132 V 149.40639 H 400 199.81735 v 25.57078 25.57078 H 400 600.18265 Z"
     id="path329"
     transform="scale(0.16)" /></g></svg>
